<svg viewBox="0 0 375 667" xmlns="http://www.w3.org/2000/svg"><path d="m132.36 210.69a6.39 6.39 0 1 0 -6.36-6.39 6.41 6.41 0 0 0 6.36 6.39zm-11.82 10.86-8.94 45h6.71l5.75-25.55 6.7 6.39v19.16h6.39v-23.92l-6.71-6.39 1.92-9.58a23.39 23.39 0 0 0 17.57 8v-6.39a15.73 15.73 0 0 1 -13.74-7.67l-3.19-5.12a6.6 6.6 0 0 0 -5.43-3.19c-1 0-1.6.32-2.56.32l-16.6 7v15h6.38v-10.82z" fill="#a7a5f0"/><path d="m249 204.3a6.39 6.39 0 1 0 -6.39 6.39 6.41 6.41 0 0 0 6.39-6.39zm5.43 17.25 5.75 2.24v10.86h6.38v-15l-16.6-7c-1 0-1.6-.32-2.56-.32a6.6 6.6 0 0 0 -5.43 3.19l-3.19 5.11a15.73 15.73 0 0 1 -13.74 7.67v6.39a23.39 23.39 0 0 0 17.57-8l1.92 9.58-6.71 6.39v23.95h6.39v-19.19l6.7-6.39 5.75 25.55h6.71l-8.94-45" fill="#a7a5f0"/><path d="m189.1 210.69a6.39 6.39 0 1 0 -6.39-6.39 6.4 6.4 0 0 0 6.39 6.39zm20.76 22.36v33.53h-3.2v-33.53a1.6 1.6 0 1 0 -3.19 0v3.19h-3.19v-2.24a19.26 19.26 0 0 1 -11.22-8 25.79 25.79 0 0 0 -1.56 8.66c0 .73.06 1.46.1 2.2l6.29 9v20.76h-6.39v-16l-5.68-8.11-.71 11.31-9.58 12.77-5.11-3.83 8.3-11.08v-17a38.83 38.83 0 0 1 1.6-10.83l-4.79 2.71v11.31h-6.39v-15l17.25-9.87a6.39 6.39 0 0 1 6.2.09 6.46 6.46 0 0 1 2.55 2.72l2.52 5.33a12.75 12.75 0 0 0 11.41 7.06 4.78 4.78 0 0 1 4.79 4.85z" fill="#fff"/></svg>