<svg id="Layer_1" data-name="Layer 1" xmlns="http://www.w3.org/2000/svg" viewBox="0 0 375 667"><defs><style>.cls-1{fill:#2208b2;}.cls-2{fill:#4842e0;}.cls-3{fill:#8382ec;}.cls-4{fill:#f5e8e9;}.cls-5{fill:#cd786a;}.cls-6{fill:#9e473c;}.cls-7{fill:#fff;}.cls-8{fill:none;stroke:#fff;stroke-miterlimit:10;}</style></defs><path class="cls-1" d="M37.76,445.83h150a0,0,0,0,1,0,0V512.5a0,0,0,0,1,0,0H46.09a8.33,8.33,0,0,1-8.33-8.33V445.83A0,0,0,0,1,37.76,445.83Z"/><rect class="cls-2" x="37.76" y="379.17" width="150" height="66.67"/><path class="cls-3" d="M46.09,312.5H187.76a0,0,0,0,1,0,0v66.67a0,0,0,0,1,0,0h-150a0,0,0,0,1,0,0V320.83A8.33,8.33,0,0,1,46.09,312.5Z"/><path class="cls-4" d="M187.76,312.5H329.43a8.33,8.33,0,0,1,8.33,8.33v58.34a0,0,0,0,1,0,0h-150a0,0,0,0,1,0,0V312.5A0,0,0,0,1,187.76,312.5Z"/><rect class="cls-5" x="187.76" y="379.17" width="150" height="66.67"/><path class="cls-6" d="M187.76,445.83h150a0,0,0,0,1,0,0v58.34a8.33,8.33,0,0,1-8.33,8.33H187.76a0,0,0,0,1,0,0V445.83A0,0,0,0,1,187.76,445.83Z"/><path class="cls-7" d="M86.58,349.13v-.93l9-3.91v1.26l-7.43,3.11,7.43,3.13V353Z"/><path class="cls-7" d="M104.65,353.23a5.5,5.5,0,0,1-1.07-3.77q0-3.56,1.29-5a4.09,4.09,0,0,1,3.23-1.5,5.55,5.55,0,0,1,1.57.2,4.11,4.11,0,0,1,1.27.64l-.55.86a3.48,3.48,0,0,0-1-.51,4.37,4.37,0,0,0-1.22-.15,2.67,2.67,0,0,0-2.19,1,5.74,5.74,0,0,0-1.08,2.87,3.44,3.44,0,0,1,1.3-1.05,4.14,4.14,0,0,1,1.75-.33,3.48,3.48,0,0,1,3.81,3.83q0,4.18-4.14,4.18A3.78,3.78,0,0,1,104.65,353.23Zm5.11-.57a3.54,3.54,0,0,0,.67-2.42,2.94,2.94,0,0,0-.67-2.13,2.79,2.79,0,0,0-2.07-.68,3.11,3.11,0,0,0-1.35.31,2.61,2.61,0,0,0-1,.9,2.53,2.53,0,0,0-.41,1.45q0,3.32,2.72,3.31A2.78,2.78,0,0,0,109.76,352.66Z"/><path class="cls-7" d="M114,353a8.8,8.8,0,0,1,0-8.63,4.85,4.85,0,0,1,6.9,0,8.87,8.87,0,0,1,0,8.63,4.85,4.85,0,0,1-6.9,0Zm5.87-.69a8.22,8.22,0,0,0,0-7.24,3.19,3.19,0,0,0-4.85,0,8.22,8.22,0,0,0,0,7.24,3.2,3.2,0,0,0,4.85,0Z"/><path class="cls-7" d="M132.27,353.52a3.68,3.68,0,0,1-.81-2.55v-3.06a2.73,2.73,0,0,1-.5,0,1.41,1.41,0,0,1-1.06-.37,1.95,1.95,0,0,1,0-2.31,1.79,1.79,0,0,1,1.26-.36,1.77,1.77,0,0,1,1.3.37,1.88,1.88,0,0,1,.35,1.28V351a3.89,3.89,0,0,0,.19,1.34,1.44,1.44,0,0,0,.68.8,2.9,2.9,0,0,0,1.43.28,2.93,2.93,0,0,0,1.47-.3,1.45,1.45,0,0,0,.66-.84,5.32,5.32,0,0,0,.16-1.48V342h1.38V351a4,4,0,0,1-6.53,2.55Zm-.51-6.48a.79.79,0,0,0,.17-.57.77.77,0,0,0-.16-.58.92.92,0,0,0-.62-.16.86.86,0,0,0-.6.16.77.77,0,0,0-.17.58.79.79,0,0,0,.17.57.86.86,0,0,0,.6.16A.93.93,0,0,0,131.76,347Z"/><path class="cls-7" d="M130.88,341.76a4.08,4.08,0,0,1,3.64-.5,2,2,0,0,1,.86.58v-1.53h1.28v3.54h-6.8A2.83,2.83,0,0,1,130.88,341.76ZM135.3,343a2.17,2.17,0,0,0-.78-.81,2.55,2.55,0,0,0-1.25-.27,2.76,2.76,0,0,0-1.33.28,1.26,1.26,0,0,0-.67.8Z"/><path class="cls-7" d="M87.14,418.45l7.43-3.12-7.43-3.12V411l9,3.91v.93l-9,3.91Z"/><path class="cls-7" d="M105.21,419.9a5.52,5.52,0,0,1-1.07-3.78c0-2.36.43-4.05,1.29-5a4.09,4.09,0,0,1,3.23-1.5,5.58,5.58,0,0,1,1.57.19,4.34,4.34,0,0,1,1.27.64l-.55.87a3.48,3.48,0,0,0-1-.51,4.33,4.33,0,0,0-1.22-.15,2.69,2.69,0,0,0-2.19,1,5.72,5.72,0,0,0-1.07,2.88,3.46,3.46,0,0,1,1.29-1.06,4.31,4.31,0,0,1,1.75-.32,3.48,3.48,0,0,1,3.81,3.83c0,2.78-1.38,4.18-4.13,4.18A3.78,3.78,0,0,1,105.21,419.9Zm5.11-.57a3.54,3.54,0,0,0,.67-2.42,2.91,2.91,0,0,0-.67-2.13,2.79,2.79,0,0,0-2.07-.68,3,3,0,0,0-1.35.31,2.6,2.6,0,0,0-1.05.9,2.51,2.51,0,0,0-.4,1.44c0,2.21.9,3.32,2.72,3.32A2.77,2.77,0,0,0,110.32,419.33Z"/><path class="cls-7" d="M115.3,420.78a5.79,5.79,0,0,1-1.69-.88v-1.46H115v1a4.39,4.39,0,0,0,2.53.65,2.36,2.36,0,0,0,1.91-.73,3.38,3.38,0,0,0,.59-2.15,2.46,2.46,0,0,0-.67-2,3.36,3.36,0,0,0-2.15-.55H114v-.82l.34-4h6.58v1h-5.38l-.23,2.76h2q3.93,0,3.93,3.58a4,4,0,0,1-1,2.89,3.86,3.86,0,0,1-2.92,1A6.55,6.55,0,0,1,115.3,420.78Z"/><path class="cls-7" d="M131.71,420.19a3.68,3.68,0,0,1-.82-2.55v-3.06a2.54,2.54,0,0,1-.49.05,1.41,1.41,0,0,1-1.06-.38,1.93,1.93,0,0,1,0-2.3,1.79,1.79,0,0,1,1.26-.37,1.73,1.73,0,0,1,1.29.38,1.8,1.8,0,0,1,.36,1.27v4.44a3.92,3.92,0,0,0,.19,1.34,1.42,1.42,0,0,0,.68.79,2.9,2.9,0,0,0,1.43.28,2.94,2.94,0,0,0,1.47-.29,1.45,1.45,0,0,0,.66-.84,5.37,5.37,0,0,0,.16-1.48v-8.78h1.38v8.95a4,4,0,0,1-6.53,2.55Zm-.51-6.49a.79.79,0,0,0,.17-.57.81.81,0,0,0-.16-.58,1,1,0,0,0-.62-.15.92.92,0,0,0-.61.15.86.86,0,0,0-.16.58.84.84,0,0,0,.16.57.86.86,0,0,0,.61.16A.88.88,0,0,0,131.2,413.7Z"/><path class="cls-7" d="M130.32,408.42a3.75,3.75,0,0,1,2.38-.71,3.39,3.39,0,0,1,1.25.22,2,2,0,0,1,.87.58V407h1.28v3.53h-6.8A2.87,2.87,0,0,1,130.32,408.42Zm4.42,1.26a2.12,2.12,0,0,0-.79-.81,2.37,2.37,0,0,0-1.24-.28,2.85,2.85,0,0,0-1.33.28,1.3,1.3,0,0,0-.67.81Z"/><path class="cls-7" d="M86.43,485.12,93.86,482l-7.43-3.11v-1.26l9,3.91v.94l-9,3.91Z"/><path class="cls-7" d="M104.46,486.93a3,3,0,0,1-1-2.51,2.84,2.84,0,0,1,.46-1.65,2.92,2.92,0,0,1,1.22-1,2.77,2.77,0,0,1-1.15-1.06,3.05,3.05,0,0,1-.36-1.52,2.52,2.52,0,0,1,1.06-2.19,5.7,5.7,0,0,1,5.65,0,2.52,2.52,0,0,1,1.06,2.19,3,3,0,0,1-.36,1.51,2.73,2.73,0,0,1-1.15,1.07,2.92,2.92,0,0,1,1.22,1,2.84,2.84,0,0,1,.46,1.65q0,3.33-4.06,3.33A4.73,4.73,0,0,1,104.46,486.93Zm5.11-.76a2.2,2.2,0,0,0,.66-1.78,2,2,0,0,0-.65-1.6,3,3,0,0,0-2-.56h-.29a3,3,0,0,0-1.94.56,2,2,0,0,0-.66,1.6,2.2,2.2,0,0,0,.66,1.78,4.16,4.16,0,0,0,4.17,0Zm-1.92-4.89a2.85,2.85,0,0,0,1.82-.49,2,2,0,0,0,.59-1.6,1.65,1.65,0,0,0-.67-1.45,3.27,3.27,0,0,0-1.91-.47,3.24,3.24,0,0,0-1.9.47,1.65,1.65,0,0,0-.67,1.45,2,2,0,0,0,.59,1.59,2.82,2.82,0,0,0,1.82.5Z"/><path class="cls-7" d="M114.14,486.32a8.89,8.89,0,0,1,0-8.64,4.88,4.88,0,0,1,6.9,0,8.89,8.89,0,0,1,0,8.64,4.88,4.88,0,0,1-6.9,0Zm5.87-.7a8.13,8.13,0,0,0,0-7.24,3.19,3.19,0,0,0-4.84,0,8.22,8.22,0,0,0,0,7.24,3.19,3.19,0,0,0,4.84,0Z"/><path class="cls-7" d="M132.42,486.85a3.64,3.64,0,0,1-.82-2.55v-3.06a2,2,0,0,1-.49.05,1.44,1.44,0,0,1-1.07-.37,1.55,1.55,0,0,1-.36-1.12,1.58,1.58,0,0,1,.38-1.18,1.79,1.79,0,0,1,1.27-.37,1.76,1.76,0,0,1,1.29.38,1.8,1.8,0,0,1,.36,1.27v4.44a4.11,4.11,0,0,0,.18,1.33,1.48,1.48,0,0,0,.68.8,2.92,2.92,0,0,0,1.43.28,2.88,2.88,0,0,0,1.47-.3,1.37,1.37,0,0,0,.67-.84,5.68,5.68,0,0,0,.16-1.48v-8.77h1.37v8.94a4,4,0,0,1-6.52,2.55Zm-.51-6.48a1.06,1.06,0,0,0,0-1.15.91.91,0,0,0-.62-.15.9.9,0,0,0-.6.15,1.11,1.11,0,0,0,0,1.15.85.85,0,0,0,.6.16A.91.91,0,0,0,131.91,480.37Z"/><path class="cls-7" d="M131,475.09a3.71,3.71,0,0,1,2.38-.71,3.48,3.48,0,0,1,1.26.22,2.1,2.1,0,0,1,.87.57v-1.52h1.27v3.53H130A2.85,2.85,0,0,1,131,475.09Zm4.42,1.26a2.06,2.06,0,0,0-.78-.82,2.5,2.5,0,0,0-1.24-.27,2.78,2.78,0,0,0-1.34.28,1.34,1.34,0,0,0-.67.81Z"/><path class="cls-6" d="M243.89,349.13v-.93l9-3.91v1.26l-7.43,3.11,7.43,3.13V353Z"/><path class="cls-6" d="M262.56,354.11a5.67,5.67,0,0,1-1.67-.88v-1.46h1.35v1a4.36,4.36,0,0,0,2.41.64,2.83,2.83,0,0,0,2-.56,2.45,2.45,0,0,0,.61-1.89c0-1.35-.8-2-2.38-2h-1.3v-1h1.37a1.91,1.91,0,0,0,2.19-2.14,1.58,1.58,0,0,0-.64-1.4,3.07,3.07,0,0,0-1.76-.44,6.1,6.1,0,0,0-1.23.13,4.11,4.11,0,0,0-1,.35v1h-1.35v-1.45a5.35,5.35,0,0,1,1.61-.74,7.37,7.37,0,0,1,2-.28,4.63,4.63,0,0,1,2.7.72,2.4,2.4,0,0,1,1,2.1,2.78,2.78,0,0,1-1.52,2.67,2.54,2.54,0,0,1,1.64,2.54,3.33,3.33,0,0,1-1,2.64,4.47,4.47,0,0,1-3,.84A6.29,6.29,0,0,1,262.56,354.11Z"/><path class="cls-6" d="M271.48,347.8a2.55,2.55,0,0,1-1.3-2.27,2.62,2.62,0,0,1,.34-1.32,2.64,2.64,0,0,1,2.27-1.3,2.61,2.61,0,0,1,1.32.35,2.55,2.55,0,0,1,.95.95,2.63,2.63,0,0,1,.35,1.32,2.61,2.61,0,0,1-.35,1.32,2.55,2.55,0,0,1-.95.95,2.65,2.65,0,0,1-2.63,0Zm2.44-1.14a1.58,1.58,0,0,0,.46-1.13,1.54,1.54,0,0,0-.46-1.12,1.52,1.52,0,0,0-1.13-.46,1.54,1.54,0,0,0-1.13.46,1.5,1.5,0,0,0-.46,1.12,1.59,1.59,0,0,0,2.72,1.13Zm4.53-3.49h1.35l-6.41,11h-1.34Zm-.74,10.9a2.6,2.6,0,0,1-1.3-2.27,2.6,2.6,0,0,1,.35-1.31,2.55,2.55,0,0,1,2.27-1.3,2.62,2.62,0,0,1,2.27,3.93,2.55,2.55,0,0,1-.95.95,2.51,2.51,0,0,1-1.32.35A2.56,2.56,0,0,1,277.71,354.07Zm2.45-1.14a1.58,1.58,0,0,0,0-2.25,1.58,1.58,0,0,0-1.13-.46,1.56,1.56,0,0,0-1.12.46,1.61,1.61,0,0,0,0,2.25,1.49,1.49,0,0,0,1.12.47A1.51,1.51,0,0,0,280.16,352.93Z"/><path class="cls-7" d="M242.58,420.78a5.84,5.84,0,0,1-1.7-.88v-1.46h1.35v1a4.39,4.39,0,0,0,2.53.65,2.32,2.32,0,0,0,1.9-.73,3.32,3.32,0,0,0,.6-2.15,2.46,2.46,0,0,0-.67-2,3.38,3.38,0,0,0-2.15-.55h-3.16v-.82l.34-4h6.57v1h-5.37l-.24,2.76h2.06q3.93,0,3.93,3.58a4,4,0,0,1-1,2.89,3.86,3.86,0,0,1-2.92,1A6.51,6.51,0,0,1,242.58,420.78Z"/><path class="cls-7" d="M253.62,415.14h4.76v1h-4.76Z"/><path class="cls-7" d="M264.46,420.26a3,3,0,0,1-1-2.5,2.79,2.79,0,0,1,.46-1.65,2.88,2.88,0,0,1,1.22-1A2.74,2.74,0,0,1,264,414a3.13,3.13,0,0,1-.35-1.52,2.5,2.5,0,0,1,1.06-2.18,5.61,5.61,0,0,1,5.64,0,2.51,2.51,0,0,1,1.07,2.18A3,3,0,0,1,271,414a2.76,2.76,0,0,1-1.16,1.07,3,3,0,0,1,1.23,1,2.87,2.87,0,0,1,.46,1.65q0,3.33-4.07,3.33A4.72,4.72,0,0,1,264.46,420.26Zm5.1-.75a2.2,2.2,0,0,0,.67-1.79,2,2,0,0,0-.66-1.6,2.92,2.92,0,0,0-1.94-.56h-.29a3,3,0,0,0-1.94.56,2,2,0,0,0-.66,1.6,2.23,2.23,0,0,0,.66,1.79,3.18,3.18,0,0,0,2.07.56A3.22,3.22,0,0,0,269.56,419.51Zm-1.92-4.9a2.8,2.8,0,0,0,1.83-.49,2,2,0,0,0,.59-1.6,1.63,1.63,0,0,0-.68-1.44,4,4,0,0,0-3.8,0,1.62,1.62,0,0,0-.67,1.44,1.94,1.94,0,0,0,.59,1.59,2.8,2.8,0,0,0,1.82.5Z"/><path class="cls-7" d="M274.48,414.47a2.64,2.64,0,0,1-1.3-2.27,2.61,2.61,0,0,1,.35-1.32,2.55,2.55,0,0,1,1-.95,2.66,2.66,0,0,1,1.32-.35,2.61,2.61,0,0,1,1.32.35,2.55,2.55,0,0,1,.95.95,2.65,2.65,0,0,1,0,2.63,2.55,2.55,0,0,1-2.27,1.3A2.65,2.65,0,0,1,274.48,414.47Zm2.44-1.14a1.54,1.54,0,0,0,.46-1.13,1.49,1.49,0,0,0-.46-1.12,1.5,1.5,0,0,0-1.12-.46,1.54,1.54,0,0,0-1.13.46,1.49,1.49,0,0,0-.47,1.12,1.59,1.59,0,0,0,1.6,1.59A1.5,1.5,0,0,0,276.92,413.33Zm4.54-3.5h1.35l-6.41,11h-1.35Zm-.74,10.91a2.55,2.55,0,0,1-1-.95,2.66,2.66,0,0,1,0-2.64,2.55,2.55,0,0,1,1-.95,2.66,2.66,0,0,1,1.32-.35,2.61,2.61,0,0,1,1.32.35,2.55,2.55,0,0,1,.95.95,2.66,2.66,0,0,1,0,2.64,2.55,2.55,0,0,1-.95.95,2.61,2.61,0,0,1-1.32.35A2.66,2.66,0,0,1,280.72,420.74Zm2.45-1.14a1.55,1.55,0,0,0,.47-1.13,1.51,1.51,0,0,0-.47-1.12,1.54,1.54,0,0,0-1.13-.46,1.52,1.52,0,0,0-1.12.46,1.5,1.5,0,0,0-.46,1.12,1.58,1.58,0,0,0,2.71,1.13Z"/><path class="cls-7" d="M101.63,274.46a2.85,2.85,0,0,1-.76-2.08V271a1.78,1.78,0,0,1,.38-1.27,2.45,2.45,0,0,1,2.59,0,1.94,1.94,0,0,1,0,2.29,1.35,1.35,0,0,1-1,.4,2,2,0,0,1-.58-.07v.54c0,1,.7,1.43,2.11,1.43a3.15,3.15,0,0,0,1.65-.37,1.23,1.23,0,0,0,.61-1.11v-3.92a2,2,0,0,0-.58-1.59,2.81,2.81,0,0,0-1.87-.51,4.54,4.54,0,0,0-1.53.25,3.9,3.9,0,0,0-1.27.79l-.67-.8a4.64,4.64,0,0,1,1.63-.93,6,6,0,0,1,1.94-.31,4.07,4.07,0,0,1,2.86.83,3.06,3.06,0,0,1,.87,2.33v3.69a2.58,2.58,0,0,1-.34,1.25,2.66,2.66,0,0,1-1.16,1,5,5,0,0,1-2.14.39A3.69,3.69,0,0,1,101.63,274.46Zm1.55-3a.84.84,0,0,0,.16-.57.86.86,0,0,0-.16-.58.92.92,0,0,0-.61-.15,1,1,0,0,0-.62.15.81.81,0,0,0-.16.58.79.79,0,0,0,.17.57.88.88,0,0,0,.61.16A.86.86,0,0,0,103.18,271.42Z"/><path class="cls-7" d="M114.11,268.91a2.69,2.69,0,0,0-.4-1.64,1.81,1.81,0,0,0-1.48-.52,3.2,3.2,0,0,0-2.26.94l-.67-.82a4.4,4.4,0,0,1,1.37-.85,4.78,4.78,0,0,1,1.64-.27,3.14,3.14,0,0,1,2.47.83,3.51,3.51,0,0,1,.71,2.35V275h-1.38Z"/><path class="cls-7" d="M118.07,274.58a2.32,2.32,0,0,1-.93-2,2.08,2.08,0,0,1,1-2,1.91,1.91,0,0,1-.74-.83,3.13,3.13,0,0,1-.23-1.27v-1.06a1.81,1.81,0,0,1,.4-1.29,1.79,1.79,0,0,1,1.31-.41,1.85,1.85,0,0,1,1.27.36,1.53,1.53,0,0,1,.39,1.17,1.58,1.58,0,0,1-.37,1.12,1.38,1.38,0,0,1-1,.39,1.66,1.66,0,0,1-.61-.1,1.58,1.58,0,0,0,.3,1.06,1.24,1.24,0,0,0,1,.34h.72v1h-.7c-.9,0-1.34.5-1.34,1.5s.78,1.66,2.36,1.66a2.59,2.59,0,0,0,1.73-.5,2,2,0,0,0,.56-1.59V266h1.38v5.91q0,3.33-3.65,3.33A4.71,4.71,0,0,1,118.07,274.58Zm1.41-6.71a1.11,1.11,0,0,0,0-1.15.9.9,0,0,0-.6-.15.92.92,0,0,0-.61.15,1.08,1.08,0,0,0,0,1.15,1.2,1.2,0,0,0,1.2,0Z"/><path class="cls-7" d="M123.11,279a1.75,1.75,0,0,1-.49.07,1.44,1.44,0,0,1-1.07-.38,2,2,0,0,1,0-2.3,2.37,2.37,0,0,1,2.56,0,1.8,1.8,0,0,1,.36,1.27v3h-1.38Zm.3-.86a.75.75,0,0,0,.17-.57.79.79,0,0,0-.16-.58.91.91,0,0,0-.62-.15.9.9,0,0,0-.6.15,1.11,1.11,0,0,0,0,1.15.85.85,0,0,0,.6.16A.86.86,0,0,0,123.41,278.12Z"/><path class="cls-7" d="M221.22,274.88a1.8,1.8,0,0,1-.36-1.27v-7a6.83,6.83,0,0,0,0-.79.87.87,0,0,0-.17-.39,1.89,1.89,0,0,0-.45-.31l-1.52-.8v-1.24a4.31,4.31,0,0,1,1.36-.73,5.31,5.31,0,0,1,1.7-.27,6.78,6.78,0,0,1,1.59.16,4.19,4.19,0,0,1,1.25.52l-.56.85a4.42,4.42,0,0,0-2.28-.53,3.54,3.54,0,0,0-1,.13,2,2,0,0,0-.76.33v.3l1.27.67a1.83,1.83,0,0,1,.63.46,1.15,1.15,0,0,1,.27.61,7.38,7.38,0,0,1,.06,1.09v5.64a2,2,0,0,1,.49-.07,1.42,1.42,0,0,1,1.05.38,1.52,1.52,0,0,1,.38,1.12,1.55,1.55,0,0,1-.39,1.18,1.79,1.79,0,0,1-1.26.36A1.73,1.73,0,0,1,221.22,274.88Zm1.92-.59a1.06,1.06,0,0,0,0-1.15.91.91,0,0,0-.62-.16.82.82,0,0,0-.6,1.31.84.84,0,0,0,.6.17A.9.9,0,0,0,223.14,274.29Z"/><path class="cls-7" d="M226.31,274.46a2.85,2.85,0,0,1-.76-2.08V271a1.78,1.78,0,0,1,.38-1.27,2.45,2.45,0,0,1,2.59,0,1.57,1.57,0,0,1,.38,1.17,1.62,1.62,0,0,1-.37,1.12,1.35,1.35,0,0,1-1,.4,2,2,0,0,1-.58-.07v.54c0,1,.7,1.43,2.11,1.43a3.09,3.09,0,0,0,1.64-.37,1.22,1.22,0,0,0,.62-1.11v-3.92a2,2,0,0,0-.58-1.59,2.81,2.81,0,0,0-1.87-.51,4.54,4.54,0,0,0-1.53.25,4,4,0,0,0-1.28.79l-.66-.8a4.64,4.64,0,0,1,1.63-.93,5.93,5.93,0,0,1,1.94-.31,4.07,4.07,0,0,1,2.86.83,3.09,3.09,0,0,1,.86,2.33v3.69a2.48,2.48,0,0,1-.34,1.25,2.57,2.57,0,0,1-1.15,1,5,5,0,0,1-2.14.39A3.69,3.69,0,0,1,226.31,274.46Zm1.54-3a.79.79,0,0,0,.17-.57.8.8,0,0,0-.17-.58.89.89,0,0,0-.6-.15.93.93,0,0,0-.62.15.81.81,0,0,0-.16.58.79.79,0,0,0,.17.57.88.88,0,0,0,.61.16A.83.83,0,0,0,227.85,271.42Z"/><path class="cls-7" d="M234.71,271.14a2.85,2.85,0,0,1,.23-1.18,1.7,1.7,0,0,1,.78-.79l-1.4-.83v-1.09a5.55,5.55,0,0,1,1.8-1.11,5.92,5.92,0,0,1,2.16-.39,4.31,4.31,0,0,1,2.85.83,2.81,2.81,0,0,1,1,2.27V275h-1.38v-6.15a1.93,1.93,0,0,0-.63-1.58,2.82,2.82,0,0,0-1.82-.52,5,5,0,0,0-1.52.23,3.36,3.36,0,0,0-1.2.68v.22l1.47.91v.7a1.34,1.34,0,0,0-.74.59,2.38,2.38,0,0,0-.2,1.09V275h-1.38Z"/><path class="cls-7" d="M248.23,268.91a2.69,2.69,0,0,0-.41-1.64,1.8,1.8,0,0,0-1.48-.52,3.21,3.21,0,0,0-2.26.94l-.66-.82a4.29,4.29,0,0,1,1.37-.85,4.74,4.74,0,0,1,1.64-.27,3.12,3.12,0,0,1,2.46.83,3.46,3.46,0,0,1,.72,2.35V275h-1.38Z"/><path class="cls-7" d="M251.65,274.75a2.46,2.46,0,0,1-.4-1.54,3.89,3.89,0,0,1,.84-2.77,3.14,3.14,0,0,1,2.41-.88,3.57,3.57,0,0,1,1.61.34,2.3,2.3,0,0,1,1,1v-2c0-1.4-.77-2.11-2.3-2.11a4.75,4.75,0,0,0-1.55.25,4,4,0,0,0-1.32.81l-.68-.82a5.28,5.28,0,0,1,3.57-1.24,4.35,4.35,0,0,1,2.14.46,1.13,1.13,0,0,0,.38-.4,1.75,1.75,0,0,0,.2-.57l1.17.26a1.64,1.64,0,0,1-.26.77,2.34,2.34,0,0,1-.62.67,3,3,0,0,1,.64,1.94V275h-1.37a7.15,7.15,0,0,0-.6-3.38,2.19,2.19,0,0,0-2.09-1.06,2,2,0,0,0-1.35.42,1.88,1.88,0,0,0-.54,1.28,3.07,3.07,0,0,1,.53-.05,1.45,1.45,0,0,1,.32,0c.76.1,1.14.59,1.14,1.48a1.56,1.56,0,0,1-.38,1.16,1.82,1.82,0,0,1-1.27.36A1.5,1.5,0,0,1,251.65,274.75Zm1.89-.45a.8.8,0,0,0,.16-.59.79.79,0,0,0-.16-.57,1.19,1.19,0,0,0-1.21,0,.74.74,0,0,0-.17.56.78.78,0,0,0,.17.57.84.84,0,0,0,.61.18A.9.9,0,0,0,253.54,274.3Z"/><path class="cls-7" d="M261.93,268.74a2,2,0,0,1-.49.05,1.4,1.4,0,0,1-1.06-.37,1.51,1.51,0,0,1-.37-1.12,1.58,1.58,0,0,1,.38-1.18,1.79,1.79,0,0,1,1.27-.37,1.76,1.76,0,0,1,1.29.38,1.8,1.8,0,0,1,.36,1.27v3.15l2.09-3.64a2.5,2.5,0,0,1,.74-.9,1.89,1.89,0,0,1,1.06-.26c1,0,1.46.46,1.46,1.36V275h-1.37v-7.85c0-.26-.12-.4-.34-.4a.34.34,0,0,0-.3.15,6.22,6.22,0,0,0-.4.64l-2.94,5.11V275h-1.38Zm.31-.87a.79.79,0,0,0,.17-.57.84.84,0,0,0-.16-.58,1,1,0,0,0-.63-.15.9.9,0,0,0-.6.15,1.11,1.11,0,0,0,0,1.15.85.85,0,0,0,.6.16A.91.91,0,0,0,262.24,267.87Z"/><path class="cls-7" d="M262.23,262.6a4.46,4.46,0,0,1,2.61-.72,4.55,4.55,0,0,1,1.43.22,2.63,2.63,0,0,1,1.1.63v-1.58h1.28v3.53h-7.59A2.67,2.67,0,0,1,262.23,262.6Zm5,1.25a1.87,1.87,0,0,0-.93-.81,3.62,3.62,0,0,0-1.5-.28,3.83,3.83,0,0,0-1.55.29,1.31,1.31,0,0,0-.8.8Z"/><path class="cls-7" d="M267.37,258.15h1.28v2.35h-1.28Z"/><path class="cls-7" d="M272.78,271.92a1.76,1.76,0,0,1-.85.17,1.31,1.31,0,0,1-1.4-1.49,1.58,1.58,0,0,1,.38-1.18,1.8,1.8,0,0,1,1.24-.35,2.18,2.18,0,0,1,.93.15.94.94,0,0,1,.46.48,4.52,4.52,0,0,1,.29,1l.68,3.28h.41a1.24,1.24,0,0,0,.88-.27,1.09,1.09,0,0,0,.29-.84v-4a2,2,0,0,0-.6-1.63,2.81,2.81,0,0,0-1.88-.52,4.09,4.09,0,0,0-2.81,1l-.66-.8a5.24,5.24,0,0,1,3.57-1.24,4.13,4.13,0,0,1,2.89.82,3,3,0,0,1,.87,2.34v3.69a2.78,2.78,0,0,1-.53,1.68,2.19,2.19,0,0,1-1.89.72h-1.59Zm0-.74a.72.72,0,0,0,.17-.57.76.76,0,0,0-.16-.57.85.85,0,0,0-.6-.16.86.86,0,0,0-.62.16.76.76,0,0,0-.16.57.72.72,0,0,0,.17.57.85.85,0,0,0,.61.17A.83.83,0,0,0,272.74,271.18Z"/><path class="cls-7" d="M280,269.33a1.53,1.53,0,0,1-.9-1.47,1.59,1.59,0,0,1,.41-1.2,1.72,1.72,0,0,1,1.24-.4,1.65,1.65,0,0,1,1.22.37,1.61,1.61,0,0,1,.38,1.11,1.26,1.26,0,0,1-.15.59.92.92,0,0,1-.38.4,2.72,2.72,0,0,0,.43,0h.32a2.22,2.22,0,0,0,1.47-.63l.58.73a3.1,3.1,0,0,1-2.55.92A4.57,4.57,0,0,1,280,269.33Zm0,4.74a1.53,1.53,0,0,1-.9-1.47,1.59,1.59,0,0,1,.41-1.2,1.72,1.72,0,0,1,1.24-.4,1.69,1.69,0,0,1,1.22.36,1.61,1.61,0,0,1,.38,1.11,1.31,1.31,0,0,1-.14.59.82.82,0,0,1-.39.39,2.49,2.49,0,0,0,.75,0,2,2,0,0,0,1.47-.63l.58.75a3.13,3.13,0,0,1-2.55.91A4.57,4.57,0,0,1,280,274.07Zm1.49-6.24a.77.77,0,0,0-.16-.58,1.28,1.28,0,0,0-1.2,0,.77.77,0,0,0-.17.58.75.75,0,0,0,.18.56.87.87,0,0,0,.59.17C281.26,268.56,281.51,268.31,281.51,267.83Zm0,4.74a.83.83,0,0,0-.16-.59,1.24,1.24,0,0,0-1.2,0,.83.83,0,0,0-.17.6.74.74,0,0,0,.18.56.87.87,0,0,0,.59.17C281.26,273.3,281.51,273.06,281.51,272.57Z"/><path class="cls-7" d="M287.7,268.74a2,2,0,0,1-.49.05,1.41,1.41,0,0,1-1.06-.37,1.51,1.51,0,0,1-.37-1.12,1.58,1.58,0,0,1,.38-1.18,1.79,1.79,0,0,1,1.27-.37,1.76,1.76,0,0,1,1.29.38,1.8,1.8,0,0,1,.36,1.27v5.24l1.9-4.44h.84l1.92,4.44V266h1.38v9h-1.4l-2.31-5.32L289.1,275h-1.4Zm.31-.87a.79.79,0,0,0,.17-.57.84.84,0,0,0-.16-.58,1,1,0,0,0-.62-.15.92.92,0,0,0-.61.15,1.11,1.11,0,0,0,0,1.15.86.86,0,0,0,.61.16A.88.88,0,0,0,288,267.87Z"/><path class="cls-7" d="M299.33,274.35a3.68,3.68,0,0,1-.82-2.55v-3.06a1.94,1.94,0,0,1-.49.05,1.41,1.41,0,0,1-1.06-.37,1.56,1.56,0,0,1-.37-1.12,1.54,1.54,0,0,1,.39-1.18,1.74,1.74,0,0,1,1.26-.37,1.77,1.77,0,0,1,1.3.38,1.85,1.85,0,0,1,.35,1.27v4.44a3.82,3.82,0,0,0,.19,1.33,1.44,1.44,0,0,0,.68.8,2.9,2.9,0,0,0,1.43.28,2.93,2.93,0,0,0,1.47-.3,1.39,1.39,0,0,0,.66-.84,5.28,5.28,0,0,0,.16-1.48V266h1.38v5.79a3.73,3.73,0,0,1-.8,2.55,3.66,3.66,0,0,1-2.86.9A3.73,3.73,0,0,1,299.33,274.35Zm-.51-6.48a1.08,1.08,0,0,0,0-1.15,1,1,0,0,0-.62-.15.87.87,0,0,0-.6.15,1.06,1.06,0,0,0,0,1.15.81.81,0,0,0,.6.16A.88.88,0,0,0,298.82,267.87Z"/><path class="cls-7" d="M238.64,485.12l7.43-3.13-7.43-3.11v-1.26l9,3.91v.94l-9,3.91Z"/><path class="cls-7" d="M257.33,487.45a5.58,5.58,0,0,1-1.69-.89V485.1H257v1a4.42,4.42,0,0,0,2.54.64,2.3,2.3,0,0,0,1.9-.73,3.29,3.29,0,0,0,.6-2.14,2.48,2.48,0,0,0-.68-2,3.4,3.4,0,0,0-2.15-.55H256v-.81l.34-4H263v1h-5.37l-.24,2.75h2.06c2.62,0,3.92,1.2,3.92,3.59a4,4,0,0,1-1,2.88,3.81,3.81,0,0,1-2.91,1A6.91,6.91,0,0,1,257.33,487.45Z"/><path class="cls-7" d="M265.93,486.32a8.82,8.82,0,0,1,0-8.64,4.88,4.88,0,0,1,6.9,0,8.89,8.89,0,0,1,0,8.64,4.88,4.88,0,0,1-6.9,0Zm5.87-.7a8.22,8.22,0,0,0,0-7.24,3.2,3.2,0,0,0-4.85,0,8.22,8.22,0,0,0,0,7.24,3.2,3.2,0,0,0,4.85,0Z"/><path class="cls-7" d="M276.73,481.13a2.55,2.55,0,0,1-1-.95,2.65,2.65,0,0,1,0-2.63,2.65,2.65,0,0,1,3.58-1,2.66,2.66,0,0,1,1,3.59,2.57,2.57,0,0,1-1,.95,2.65,2.65,0,0,1-2.63,0Zm2.44-1.14a1.59,1.59,0,0,0-2.25-2.25,1.59,1.59,0,1,0,2.25,2.25Zm4.54-3.49h1.34l-6.41,11H277.3ZM283,487.41a2.57,2.57,0,0,1-1-1,2.65,2.65,0,0,1,0-2.63,2.55,2.55,0,0,1,1-.95,2.65,2.65,0,0,1,2.63,0,2.55,2.55,0,0,1,.95.95,2.65,2.65,0,0,1,0,2.63,2.65,2.65,0,0,1-3.58,1Zm2.45-1.14a1.54,1.54,0,0,0,.46-1.13,1.49,1.49,0,0,0-.46-1.12,1.56,1.56,0,0,0-1.13-.46,1.57,1.57,0,0,0-1.59,1.58,1.58,1.58,0,0,0,.46,1.13,1.52,1.52,0,0,0,1.13.46A1.56,1.56,0,0,0,285.42,486.27Z"/><rect class="cls-8" x="79.43" y="250" width="66.67" height="37.5" rx="8.33"/><rect class="cls-8" x="200.26" y="250" width="125" height="37.5" rx="8.33"/><line class="cls-8" x1="112.7" y1="287.87" x2="112.7" y2="312.5"/><line class="cls-8" x1="262.76" y1="287.5" x2="262.76" y2="312.5"/></svg>