<svg id="Layer_1" data-name="Layer 1" xmlns="http://www.w3.org/2000/svg" viewBox="0 0 375 667"><defs><style>.cls-1{fill:#4842e0;}.cls-2{fill:#4239d7;}.cls-3{fill:#3729cb;}.cls-4{fill:#2b14c1;}.cls-5{fill:#2000b1;}.cls-6{fill:#6866e7;}.cls-7{fill:none;stroke:#6866e7;stroke-linecap:round;stroke-miterlimit:10;stroke-width:1.5px;}</style></defs><path class="cls-1" d="M100.14,332.23l-37,1.72a14.06,14.06,0,0,1-14.64-15.37l3.31-34.71-19.16-3.82a4.07,4.07,0,0,1-2.81-5.87l20.51-39.46c-15-94.54,66.09-164.45,160.47-155.48,113.75,10.81,148.72,121.68,93.57,232.29l19.18,48.22,51.72,22.89V667H.26V394.9l105.06-31.06Z"/><path class="cls-2" d="M300.79,194.88C298.71,233.49,253,246,191.21,246S79.39,234.17,79.39,194.88c0-51.58,50.07-93.38,111.82-93.38C260,101.5,303.57,143.38,300.79,194.88Z"/><path class="cls-3" d="M269.77,185.08c-1.5,22.53-34.42,31.84-78.85,31.84s-80.47-8.91-80.47-31.84c0-30.09,36-54.49,80.47-54.49C240.4,130.59,271.77,155,269.77,185.08Z"/><path class="cls-4" d="M240,178.7c-.94,9.83-21.53,13.89-49.34,13.89s-50.35-3.89-50.35-13.89c0-13.13,22.55-23.78,50.35-23.78C221.59,154.92,241.22,165.59,240,178.7Z"/><path class="cls-5" d="M208.81,175c-.35,2.41-8.06,3.4-18.48,3.4s-18.85-1-18.85-3.4c0-3.22,8.44-5.82,18.85-5.82C201.93,169.15,209.28,171.76,208.81,175Z"/><ellipse class="cls-6" cx="65.56" cy="241.6" rx="3.26" ry="8.11"/><path class="cls-7" d="M46.57,299s12.29,5.12,32.32-1.95"/><line class="cls-7" x1="75.85" y1="244.31" x2="81.07" y2="244.89"/><line class="cls-7" x1="75.85" y1="240.35" x2="81.17" y2="239.64"/></svg>