<svg id="Layer_1" data-name="Layer 1" xmlns="http://www.w3.org/2000/svg" viewBox="0 0 375 667">
  <defs>
    <style>.cls-1{fill:#4842e0;}.cls-2{fill:#d0593d;}.cls-3{fill:#6866e7;}.cls-4{fill:none;stroke:#6866e7;stroke-linecap:round;stroke-miterlimit:10;stroke-width:1.5px;}.cls-5{fill:#d2593d;}.cls-6{fill:#fff;}</style>
  </defs>
  <path class="cls-1" d="M100.07,332.24l-37,1.71a14,14,0,0,1-14.63-15.36l3.3-34.68L32.6,280.09a4.06,4.06,0,0,1-2.81-5.86l20.5-39.44c-15-94.47,66-164.33,160.35-155.37C324.31,90.22,359.25,201,304.14,311.54l19.18,48.19L375,382.6V666.77H.26V394.85l105-31Z" />
  <path class="cls-2" d="M300.58,195c-2.08,38.58-33.37,51.11-109.5,51.11S79.34,234.24,79.34,195c0-51.54,50-93.32,111.74-93.32C259.8,101.66,303.36,143.52,300.58,195Z" />
  <ellipse class="cls-3" cx="65.51" cy="241.67" rx="3.26" ry="8.11" />
  <path class="cls-4" d="M46.53,299s12.28,5.12,32.31-1.94" />
  <line class="cls-4" x1="75.8" y1="244.37" x2="81.02" y2="244.95" />
  <line class="cls-4" x1="75.8" y1="240.42" x2="81.11" y2="239.71" />
  <path class="cls-5" d="M199.73,232.05l27.87,37.36a3.12,3.12,0,0,0,5.61-1.86v-35.5Z" />
  <path class="cls-6" d="M100.78,199.89a5.58,5.58,0,0,1-2-4.76q0-6.67,9.09-6.67h8.49v-2.25a8.6,8.6,0,0,0-.66-3.65,4.15,4.15,0,0,0-2.23-2.08,11,11,0,0,0-4.33-.68,20.15,20.15,0,0,0-7.22,1.27l-.34.09c-.23,0-.4-.16-.51-.47l-.3-.72a.78.78,0,0,1,0-.26c0-.25.21-.45.64-.59a19,19,0,0,1,3.69-.94,26.72,26.72,0,0,1,4.08-.34,14.08,14.08,0,0,1,5.22.81,14,14,0,0,1,2.13-1.38,12,12,0,0,1,1.91-.87l.72-.17a.48.48,0,0,1,.47.38l.38,1.11a2,2,0,0,1,.09.29c0,.09-.12.2-.34.34l-3.32,1.53c1.5,1.33,2.25,3.56,2.25,6.67V199.8a.86.86,0,0,1-1,1h-.34a.87.87,0,0,1-1-1v-9.26h-8.58a9.94,9.94,0,0,0-5.07,1,3.82,3.82,0,0,0-1.72,3.55,4,4,0,0,0,1.29,3.16,5.25,5.25,0,0,0,3.63,1.17,11.47,11.47,0,0,0,1.94-.17,7.24,7.24,0,0,0,1.55-.42l.34-.09c.22,0,.39.16.51.47l.29.72a.59.59,0,0,1,0,.26c0,.25-.21.45-.63.59a12,12,0,0,1-4.12.6A8.07,8.07,0,0,1,100.78,199.89Z" />
  <path class="cls-6" d="M131.1,200.4a8.49,8.49,0,0,1-3.5-3.1v2.5a.87.87,0,0,1-1,1h-.13a.87.87,0,0,1-1-1V179.46a.87.87,0,0,1,1-1h.34a.87.87,0,0,1,1,1v13.59a5.46,5.46,0,0,0,1,3.14,7.27,7.27,0,0,0,2.84,2.38,9.33,9.33,0,0,0,4.12.89,7.18,7.18,0,0,0,5-1.55,5.65,5.65,0,0,0,1.72-4.44v-14a.87.87,0,0,1,1-1h.34a.86.86,0,0,1,1,1V193.3a7.86,7.86,0,0,1-2.25,6,8.2,8.2,0,0,1-5.9,2.15A12.83,12.83,0,0,1,131.1,200.4Z" />
  <path class="cls-6" d="M152.57,199.38a7.57,7.57,0,0,1-2.34-6V189a.56.56,0,0,1,.64-.63h4.93a.71.71,0,0,1,.8.8v.56a.83.83,0,0,1-.21.65.91.91,0,0,1-.64.19h-3.22v2.89c0,2.1.57,3.62,1.74,4.57a8.18,8.18,0,0,0,5.26,1.42c2.86,0,4.91-.78,6.14-2.36s1.85-4.09,1.85-7.58-.66-5.9-2-7.43-3.56-2.29-6.73-2.29a20.84,20.84,0,0,0-3.78.34,17.78,17.78,0,0,0-3.31.89l-.34.08c-.23,0-.4-.15-.51-.46l-.3-.73a.54.54,0,0,1,0-.25c0-.25.21-.45.64-.59a20.31,20.31,0,0,1,3.67-.9,27.28,27.28,0,0,1,4.14-.34c3.74,0,6.46.92,8.18,2.76s2.57,4.82,2.57,8.92-.88,7.15-2.64,9-4.27,2.85-7.56,2.85C156.45,201.42,154.12,200.74,152.57,199.38Z" />
  <path class="cls-6" d="M180.07,200.16a7,7,0,0,1-2.32-3.59l-3.31-10.4a2.45,2.45,0,0,1-.09-.43c0-.39.25-.66.73-.8l.38-.13a1.21,1.21,0,0,1,.38,0,.8.8,0,0,1,.85.68l3.19,10.36a5.19,5.19,0,0,0,1.78,2.87,6,6,0,0,0,3.36.78,6.33,6.33,0,0,0,5.56-2.61,12.47,12.47,0,0,0,1.82-7.24q0-5-1.27-7.41t-4.63-2.4a9.24,9.24,0,0,0-3.48.59l-.34.09c-.23,0-.4-.16-.51-.47l-.3-.72a.46.46,0,0,1,0-.21c0-.32.21-.53.64-.64a12,12,0,0,1,4.12-.6q4.32,0,6.18,2.93t1.84,8.71c0,3.8-.83,6.73-2.5,8.81a8.63,8.63,0,0,1-7.14,3.13A7.83,7.83,0,0,1,180.07,200.16Z" />
  <path class="cls-6" d="M200.62,200.14a3.7,3.7,0,0,1-.53-2.29V179.46a.87.87,0,0,1,1-1h.34a.87.87,0,0,1,1,1v18a1.4,1.4,0,0,0,.19.89q.18.21.87.21h2.12a.92.92,0,0,1,.64.19.87.87,0,0,1,.21.66V200a.72.72,0,0,1-.81.81h-2.76A2.88,2.88,0,0,1,200.62,200.14Z" />
  <path class="cls-6" d="M213.07,199.89a5.58,5.58,0,0,1-2-4.76q0-6.67,9.09-6.67h8.49v-2.25a8.6,8.6,0,0,0-.66-3.65,4.15,4.15,0,0,0-2.23-2.08,11,11,0,0,0-4.33-.68,20.19,20.19,0,0,0-7.22,1.27l-.34.09c-.22,0-.39-.16-.51-.47l-.29-.72a.57.57,0,0,1-.05-.26c0-.25.22-.45.64-.59a19,19,0,0,1,3.69-.94,26.72,26.72,0,0,1,4.08-.34,14.18,14.18,0,0,1,5.23.81,13.41,13.41,0,0,1,2.12-1.38,12,12,0,0,1,1.91-.87l.72-.17a.48.48,0,0,1,.47.38l.38,1.11a2,2,0,0,1,.09.29c0,.09-.12.2-.34.34l-3.32,1.53c1.5,1.33,2.26,3.56,2.26,6.67V199.8a.87.87,0,0,1-1,1h-.34a.87.87,0,0,1-1-1v-9.26h-8.58a10,10,0,0,0-5.07,1,3.82,3.82,0,0,0-1.72,3.55,4,4,0,0,0,1.29,3.16,5.25,5.25,0,0,0,3.63,1.17,11.38,11.38,0,0,0,1.94-.17,7.24,7.24,0,0,0,1.55-.42l.34-.09c.22,0,.39.16.51.47l.29.72a.57.57,0,0,1,.05.26c0,.25-.22.45-.64.59a12,12,0,0,1-4.12.6A8.07,8.07,0,0,1,213.07,199.89Z" />
  <path class="cls-6" d="M214.26,173.79a.81.81,0,0,1-.24-.66v-.3c0-.62.33-.93,1-.93h8.07v-4.25a.86.86,0,0,1,1-1h.34a.86.86,0,0,1,1,1v4.25h3.78v-4.25a.87.87,0,0,1,1-1h.34a.87.87,0,0,1,1,1v5.48a.81.81,0,0,1-.24.66,1.13,1.13,0,0,1-.74.19H215A1.13,1.13,0,0,1,214.26,173.79Z" />
  <path class="cls-6" d="M229.14,162.6v-5a.87.87,0,0,1,1-1h.34a.87.87,0,0,1,1,1v5a.86.86,0,0,1-1,1h-.34A.86.86,0,0,1,229.14,162.6Z" />
  <path class="cls-6" d="M239.29,199.38a7.56,7.56,0,0,1-2.33-6V189a.56.56,0,0,1,.63-.63h4.93a.71.71,0,0,1,.81.8v.56a.8.8,0,0,1-.22.65.9.9,0,0,1-.63.19h-3.23v2.89A5.57,5.57,0,0,0,241,198a8.21,8.21,0,0,0,5.27,1.42c2.86,0,4.9-.78,6.13-2.36s1.85-4.09,1.85-7.58-.66-5.9-2-7.43-3.56-2.29-6.73-2.29a20.87,20.87,0,0,0-3.79.34,18,18,0,0,0-3.31.89l-.34.08c-.22,0-.39-.15-.51-.46l-.29-.73a.52.52,0,0,1-.05-.25c0-.25.22-.45.64-.59a20.31,20.31,0,0,1,3.67-.9,27.28,27.28,0,0,1,4.14-.34q5.61,0,8.18,2.76t2.57,8.92c0,4.14-.88,7.15-2.63,9s-4.28,2.85-7.56,2.85Q241.63,201.42,239.29,199.38Z" />
  <path class="cls-6" d="M267.51,200.4a8.55,8.55,0,0,1-3.5-3.1v2.5a.87.87,0,0,1-1,1h-.12a.86.86,0,0,1-1-1V179.46a.86.86,0,0,1,1-1h.34a.86.86,0,0,1,1,1v13.59a5.46,5.46,0,0,0,1,3.14,7.23,7.23,0,0,0,2.85,2.38,9.3,9.3,0,0,0,4.12.89,7.14,7.14,0,0,0,4.94-1.55,5.65,5.65,0,0,0,1.72-4.44v-14a.87.87,0,0,1,1-1h.34a.87.87,0,0,1,1,1V193.3a7.86,7.86,0,0,1-2.25,6,8.21,8.21,0,0,1-5.91,2.15A12.86,12.86,0,0,1,267.51,200.4Z" />
  <path class="cls-6" d="M135.48,164.52a.64.64,0,0,1-.16-.49v-6.56a.58.58,0,0,1,.68-.66h1.11a.57.57,0,0,1,.68.66v1.72h1.59a.86.86,0,0,0,.74-.27,1.34,1.34,0,0,0,.19-.79v-.66a.73.73,0,0,1,.16-.5.7.7,0,0,1,.52-.16h1.12a.7.7,0,0,1,.53.16.68.68,0,0,1,.16.5v.72a1.73,1.73,0,0,1-1.08,1.86,1.45,1.45,0,0,1,.83.7,2.51,2.51,0,0,1,.25,1.16V164a.64.64,0,0,1-.16.49.7.7,0,0,1-.53.16H141a.7.7,0,0,1-.52-.16.69.69,0,0,1-.16-.49v-2a1.17,1.17,0,0,0-.2-.76.81.81,0,0,0-.68-.26h-1.64v3a.68.68,0,0,1-.15.49.73.73,0,0,1-.53.16H136A.69.69,0,0,1,135.48,164.52Z" />
  <path class="cls-6" d="M138.83,155.5a.79.79,0,0,1-.15-.54v-.67H138a.59.59,0,0,1-.45-.14.68.68,0,0,1-.12-.44v-.48a.71.71,0,0,1,.12-.45.59.59,0,0,1,.45-.14h1.87a.64.64,0,0,1,.48.14.84.84,0,0,1,.12.52v.83q1.68-.15,2.43-.15a.51.51,0,0,1,.38.1.56.56,0,0,1,.09.36v.63a.69.69,0,0,1-.12.46.64.64,0,0,1-.45.12h-3.44A.77.77,0,0,1,138.83,155.5Z" />
  <path class="cls-6" d="M145.28,164.16a2.63,2.63,0,0,1-.95-2.21v-1.24a.69.69,0,0,1,.14-.47.67.67,0,0,1,.49-.15h2.23a.5.5,0,0,1,.36.11.54.54,0,0,1,.11.37v.6a.54.54,0,0,1-.11.38.51.51,0,0,1-.37.1h-.66v.48a.82.82,0,0,0,.4.72,2,2,0,0,0,1.13.27,1.89,1.89,0,0,0,1-.23,1.24,1.24,0,0,0,.5-.74,5.36,5.36,0,0,0,.15-1.44,2.67,2.67,0,0,0-.49-1.8,2.2,2.2,0,0,0-1.68-.54,4.49,4.49,0,0,0-2,.46,1.08,1.08,0,0,1-.26.09c-.09,0-.17-.06-.24-.19l-.5-.9a.63.63,0,0,1-.08-.26.3.3,0,0,1,.17-.25,4.82,4.82,0,0,1,1.51-.55,10.08,10.08,0,0,1,2-.19,4.29,4.29,0,0,1,3.11,1,4.22,4.22,0,0,1,1,3.12,4.27,4.27,0,0,1-1.06,3.16,4.14,4.14,0,0,1-3,1A4.53,4.53,0,0,1,145.28,164.16Z" />
  <path class="cls-6" d="M155.48,164.38a3.13,3.13,0,0,1-1.14-1.7l-.87-2.74a1.35,1.35,0,0,1-.06-.27c0-.15.09-.25.27-.31l1.38-.47.26-.06a.23.23,0,0,1,.19.09,1.09,1.09,0,0,1,.15.29l1,3a1.55,1.55,0,0,0,.41.72,1.19,1.19,0,0,0,.79.2,1.09,1.09,0,0,0,1.05-.6,4.18,4.18,0,0,0,.32-1.88,3.77,3.77,0,0,0-.3-1.74,1,1,0,0,0-1-.53,1.28,1.28,0,0,0-.47.1,1.75,1.75,0,0,1-.28.11l-.15,0q-.15,0-.24-.21l-.38-1.06a.9.9,0,0,1,0-.15c0-.07.06-.14.17-.21a4.06,4.06,0,0,1,1.87-.41,2.82,2.82,0,0,1,2.39,1.1,4.77,4.77,0,0,1,.83,3,4.46,4.46,0,0,1-1,3.16,3.9,3.9,0,0,1-3,1.08A3.84,3.84,0,0,1,155.48,164.38Z" />
  <path class="cls-6" d="M163.3,164.52a.64.64,0,0,1-.16-.49v-6.64a.51.51,0,0,1,.57-.58h1a.52.52,0,0,1,.31.08.39.39,0,0,1,.12.28l0,.48a3.54,3.54,0,0,1,2.77-1.07,3.12,3.12,0,0,1,2.15.72,2.69,2.69,0,0,1,.81,2.12V164a.69.69,0,0,1-.16.49.7.7,0,0,1-.52.16h-1.12a.7.7,0,0,1-.53-.16.64.64,0,0,1-.16-.49v-4.54a1.16,1.16,0,0,0-.31-.9,1.34,1.34,0,0,0-.94-.28,1.74,1.74,0,0,0-1.15.36,1.09,1.09,0,0,0-.43.88V164a.73.73,0,0,1-.15.49.7.7,0,0,1-.53.16h-1.11A.7.7,0,0,1,163.3,164.52Z" />
  <path class="cls-6" d="M173.31,163.82a5.25,5.25,0,0,1,.29-6.1,4.5,4.5,0,0,1,3.32-1.14,4.4,4.4,0,0,1,3.08.94,3.25,3.25,0,0,1,1,2.47v4a.68.68,0,0,1-.15.49.73.73,0,0,1-.53.16h-1.13a.7.7,0,0,1-.52-.16.68.68,0,0,1-.15-.49v-4a1.79,1.79,0,0,0-.38-1.23,1.54,1.54,0,0,0-1.21-.42,1.8,1.8,0,0,0-1.5.64,3.35,3.35,0,0,0-.5,2,3.17,3.17,0,0,0,.36,1.64,1.13,1.13,0,0,0,1,.6,2,2,0,0,0,.73-.15l.11,0c.1,0,.16.07.19.21l.24.95a.3.3,0,0,1,0,.1.16.16,0,0,1-.06.13.5.5,0,0,1-.17.11,4.4,4.4,0,0,1-1.68.27A2.8,2.8,0,0,1,173.31,163.82Z" />
  <path class="cls-6" d="M183.25,164.27a2.23,2.23,0,0,1-.73-1.74,2.16,2.16,0,0,1,.92-2A4.79,4.79,0,0,1,186,160h2.09v-.29a1.18,1.18,0,0,0-.42-1,2.52,2.52,0,0,0-1.46-.32,4.39,4.39,0,0,0-1.06.13,4.09,4.09,0,0,0-1,.33,1.08,1.08,0,0,1-.25.09c-.09,0-.17-.06-.24-.19l-.51-.9a.63.63,0,0,1-.08-.26.3.3,0,0,1,.17-.25,4.88,4.88,0,0,1,1.49-.55,9.43,9.43,0,0,1,1.88-.19,4.49,4.49,0,0,1,3,.83,3.14,3.14,0,0,1,1,2.5V164a.64.64,0,0,1-.16.49.7.7,0,0,1-.53.16h-1.11a.7.7,0,0,1-.52-.16.69.69,0,0,1-.16-.49v-2.38h-2.06a1.7,1.7,0,0,0-.93.19.73.73,0,0,0-.29.66.77.77,0,0,0,.23.63,1.19,1.19,0,0,0,.72.18,2,2,0,0,0,.73-.15l.11,0c.1,0,.16.07.19.21l.24.95a.31.31,0,0,1,0,.1.15.15,0,0,1-.05.13.5.5,0,0,1-.17.11,4.33,4.33,0,0,1-1.66.27A2.84,2.84,0,0,1,183.25,164.27Z" />
  <path class="cls-6" d="M193.07,164.16a2.61,2.61,0,0,1-.95-2.21v-1.24a.65.65,0,0,1,.14-.47.65.65,0,0,1,.49-.15H195a.5.5,0,0,1,.36.11.55.55,0,0,1,.1.37v.6a.39.39,0,0,1-.48.48h-.65v.48a.84.84,0,0,0,.39.72,2,2,0,0,0,1.13.27,1.93,1.93,0,0,0,1-.23,1.24,1.24,0,0,0,.5-.74,5.36,5.36,0,0,0,.15-1.44,2.67,2.67,0,0,0-.5-1.8,2.2,2.2,0,0,0-1.68-.54,4.45,4.45,0,0,0-2,.46,1.08,1.08,0,0,1-.26.09c-.09,0-.17-.06-.24-.19l-.51-.9a.6.6,0,0,1-.07-.26.29.29,0,0,1,.16-.25,5,5,0,0,1,1.52-.55,9.89,9.89,0,0,1,1.94-.19,4.28,4.28,0,0,1,3.11,1,4.18,4.18,0,0,1,1,3.12,4.23,4.23,0,0,1-1.06,3.16,4.13,4.13,0,0,1-3,1A4.48,4.48,0,0,1,193.07,164.16Z" />
  <path class="cls-6" d="M203.27,164.38a3.13,3.13,0,0,1-1.14-1.7l-.87-2.74a1.35,1.35,0,0,1-.06-.27c0-.15.09-.25.27-.31l1.38-.47.25-.06a.25.25,0,0,1,.2.09,1.09,1.09,0,0,1,.15.29l1,3a1.55,1.55,0,0,0,.4.72,1.22,1.22,0,0,0,.8.2,1.09,1.09,0,0,0,1-.6,4.2,4.2,0,0,0,.31-1.88,3.93,3.93,0,0,0-.29-1.74,1,1,0,0,0-1-.53,1.23,1.23,0,0,0-.46.1,1.71,1.71,0,0,1-.29.11l-.15,0q-.15,0-.24-.21l-.37-1.06a.9.9,0,0,1,0-.15c0-.07.05-.14.16-.21a4.1,4.1,0,0,1,1.88-.41,2.83,2.83,0,0,1,2.39,1.1,4.84,4.84,0,0,1,.83,3,4.42,4.42,0,0,1-1,3.16,3.88,3.88,0,0,1-3,1.08A3.8,3.8,0,0,1,203.27,164.38Z" />
</svg>
