<svg id="Layer_1" data-name="Layer 1" xmlns="http://www.w3.org/2000/svg" viewBox="0 0 68.36 28.15"><defs><style>.cls-1{fill:#c9c8f3;}</style></defs><path class="cls-1" d="M1.85,1.86H6.49a4,4,0,0,1,3,1,3.15,3.15,0,0,1,.87,2.32v0A3.13,3.13,0,0,1,8.14,8.39L10.63,12H8L5.84,8.77H4.08V12H1.85ZM6.35,6.8c1.08,0,1.71-.58,1.71-1.44v0c0-1-.67-1.45-1.76-1.45H4.08V6.8Z"/><path class="cls-1" d="M12.44,1.86h2.23V12H12.44Z"/><path class="cls-1" d="M16.51,10.54,17.83,9a4.64,4.64,0,0,0,3,1.23c.91,0,1.46-.36,1.46-.95v0c0-.57-.35-.86-2-1.29-2-.53-3.36-1.09-3.36-3.11v0c0-1.84,1.48-3.06,3.55-3.06A5.88,5.88,0,0,1,24.25,3L23.09,4.69a4.81,4.81,0,0,0-2.65-1c-.85,0-1.3.4-1.3.89v0c0,.67.43.88,2.19,1.33,2.06.54,3.22,1.28,3.22,3.05V9c0,2-1.54,3.15-3.73,3.15A6.46,6.46,0,0,1,16.51,10.54Z"/><path class="cls-1" d="M26.49,1.86h7.66v2H28.71V5.91H33.5v2H28.71V10h5.52v2H26.49Z"/><path class="cls-1" d="M13.12,15.86h.76V26h-.76Z"/><path class="cls-1" d="M17,15.86h.71l4.08,6,4.08-6h.71V26h-.75V17.2l-4,5.85h-.06l-4-5.85V26H17Z"/><path class="cls-1" d="M29.59,15.86h3.68C35.51,15.86,37,17,37,19v0c0,2.13-1.84,3.23-4,3.23H30.34V26h-.75Zm3.54,5.68c1.88,0,3.16-1,3.16-2.5v0c0-1.61-1.25-2.45-3.08-2.45H30.34v5Z"/><path class="cls-1" d="M42.12,15.79h.73L47.58,26h-.83l-1.29-2.84h-6L38.17,26h-.78Zm3,6.71-2.67-5.88L39.78,22.5Z"/><path class="cls-1" d="M48.69,21v0a5.11,5.11,0,0,1,5.08-5.25,5.37,5.37,0,0,1,3.95,1.63l-.54.55a4.65,4.65,0,0,0-3.42-1.5,4.35,4.35,0,0,0-4.29,4.54v0a4.38,4.38,0,0,0,4.3,4.57,4.65,4.65,0,0,0,3.5-1.58l.5.5a5.34,5.34,0,0,1-4,1.77A5.05,5.05,0,0,1,48.69,21Z"/><path class="cls-1" d="M62.66,16.56H59.12v-.7H67v.7H63.42V26h-.76Z"/></svg>